<svg xmlns="http://www.w3.org/2000/svg" viewBox="0 0 512 640" x="0px" y="0px"><title>Glyph science magnifying glass fossil</title><path fill="currentColor" d="M388.45,351.85a9.12,9.12,0,0,0-13.38.49q-5.2,6.07-10.93,11.8t-11.8,10.93a9.12,9.12,0,0,0-.49,13.38l90.43,90.43a25.88,25.88,0,0,0,36.6-36.6Z"/><path fill="currentColor" d="M217.91,410.28c106.24,0,192.37-86.13,192.37-192.37S324.15,25.54,217.91,25.54,25.54,111.67,25.54,217.91,111.67,410.28,217.91,410.28Zm0-333.62A141.25,141.25,0,1,1,76.66,217.91,141.25,141.25,0,0,1,217.91,76.66Z"/><path fill="currentColor" d="M171.09,249.49A44.55,44.55,0,0,0,194.28,256h1.41a43.8,43.8,0,0,0,23-6.7c20.66-12.73,44.1-15.77,50.51-16.45.93-.1,1.86-.21,2.78-.38,9.95-1.84,15.85-6.38,19.22-10.34a5,5,0,0,0-2.89-8.27c-6.8-1.26-15.06-2.59-19.17-3.24a2.78,2.78,0,0,1-2.35-2.78,15.82,15.82,0,0,0-.58-4.53,2.8,2.8,0,0,0-4.67-1.21,53.86,53.86,0,0,1-8,6.1,12.61,12.61,0,0,1-6.82,2H217.91a50.06,50.06,0,0,1-15.19-2,9.82,9.82,0,0,1-3.47-16.7,29.9,29.9,0,0,1,2.82-2.19A28,28,0,0,1,218,184.58H229.8a2.87,2.87,0,0,1,2.56,1.59l2.71,5.42a2.87,2.87,0,0,0,5,.2l3.07-5a2.86,2.86,0,0,1,2.45-1.38h50.74a2.87,2.87,0,0,1,2.82,2.36l.27,1.51a2.86,2.86,0,0,0,5.17,1.13c8.36-12.46,9.71-26.33,9.65-33.3a10.32,10.32,0,0,0-4.43-8.44c-22.88-15.79-58.36-25.93-74-27.78a16.38,16.38,0,0,1-10.51-5.41c-8.35-9.69-20.07-4.51-27,.11a10.58,10.58,0,0,1-11.75,0,37.51,37.51,0,0,0-8.82-4.49A10.37,10.37,0,0,0,169,112c-18.57,11.23-33.68,28.89-42.72,41.1A46.8,46.8,0,0,0,117,180.93v2.47a45.43,45.43,0,0,0,6.72,24.12C135.15,225.74,157.46,241.2,171.09,249.49Zm29.62-110.14c27.28-4,34.55,8.68,36.43,17a5.9,5.9,0,0,1-5.39,7.17c-3.94.27-9.92.53-18.26.53-11.28,0-15.86-10.34-17.66-17.34A5.93,5.93,0,0,1,200.71,139.35Zm-46.34,22.93c2.44-4.41,7.13-11,14.66-14.52a9.52,9.52,0,0,1,12.3,4.06,88.75,88.75,0,0,1,5.85,12.9,9.49,9.49,0,0,1-1.64,9.35,44.29,44.29,0,0,1-9.23,8.21,9.37,9.37,0,0,1-9.27.58,29.19,29.19,0,0,1-12.61-11.27A9.53,9.53,0,0,1,154.37,162.28Z"/><path fill="currentColor" d="M125.83,256a17.77,17.77,0,0,0,1.85-10.14c-1.32-10.55-6.17-16.39-10.39-19.54A12.28,12.28,0,0,0,98.56,231c-.18.4-.33.79-.46,1.16a12.59,12.59,0,0,0-.6,5.35c1,10.36,4.55,17,8.35,21.23A12.17,12.17,0,0,0,125.83,256Z"/><path fill="currentColor" d="M225.72,292.32c-25.63-.1-48.51-9.2-61.18-15.42a16.09,16.09,0,0,0-16,27.84c33.32,21.6,63.59,8.64,80.27-2.62A5.37,5.37,0,0,0,225.72,292.32Z"/><path fill="currentColor" d="M289.87,263.89a5.88,5.88,0,0,0-9.29-.77c-4.25,4.66-9.07,9.38-12.23,12.41a10.91,10.91,0,0,0-2.46,12.54,10,10,0,0,0,3.2,3.81,10.79,10.79,0,0,0,9.31,1.4,24.81,24.81,0,0,0,9.44-5.1,17.47,17.47,0,0,0,3.63-21.6C291,265.63,290.41,264.73,289.87,263.89Z"/></svg>