<svg width="240" height="240" viewBox="0 0 240 240" fill="none" xmlns="http://www.w3.org/2000/svg">
<mask id="mask0_426_127" style="mask-type:alpha" maskUnits="userSpaceOnUse" x="0" y="0" width="240" height="240">
<path d="M120 240C186.274 240 240 186.274 240 120C240 53.7258 186.274 0 120 0C53.7258 0 0 53.7258 0 120C0 186.274 53.7258 240 120 240Z" fill="url(#paint0_linear_426_127)"/>
</mask>
<g mask="url(#mask0_426_127)">
<rect width="240" height="240" fill="url(#paint1_linear_426_127)"/>
<path d="M241.55 80.1185H-4.23999V142.38H242.7L241.55 80.1185Z" fill="#EF8D7A"/>
<path d="M-7.69995 82.0741C-7.69995 81.0864 21.95 83.121 23.39 83.279C47.2125 85.9272 70.5832 91.6346 92.91 100.257C117.27 109.6 139.28 125.936 165.64 129.709C187.38 132.81 209.97 128.79 230.31 121.086C239.638 117.514 248.666 113.221 257.31 108.247V173.867H-6.54995C-6.54995 173.867 -7.69995 82.1037 -7.69995 82.0741Z" fill="#B48385"/>
<path d="M-9.95996 117.343C-9.95996 117.343 2.71004 100.652 49.56 116.583L112.16 141.995C112.16 141.995 167.46 170.825 248.49 137.827V214.064H-8.84996L-9.95996 117.343Z" fill="#746175"/>
<path d="M-2.70995 161.719C-2.34995 162.074 2.73005 160.8 3.29005 160.731C9.13825 160.073 15.0304 159.878 20.9101 160.148C40.5401 160.909 62.5101 164.77 79.5501 174.696C107.04 190.686 136.91 203.012 169.04 195.151C173.72 194.005 177.82 193.758 182.43 191.447C192.73 186.291 206.54 178.874 215.49 171.852C224.21 165.007 234.98 160.78 245.85 158.677C244.41 181.985 245.8 205.946 245.8 229.343V252.751H-1.95995C-1.95995 252.751 -3.27995 161.156 -2.70995 161.719Z" fill="#56525D"/>
<path d="M139.55 80.1383L136.04 76.5926H133.85L131.16 74.9333L124.82 69.363L122.63 67.9506H119.82L117.14 66.7654L114.33 65.1062L112.01 63.1309L109.7 61.8272L107.14 61.4716C107.14 61.4716 103.23 60.4049 102.87 60.2864L100.31 59.4568H95.89L94.18 60.0494L85.28 63.3679L83.57 64.1481L81.78 64.9086L55.78 80.4444L139.78 80.2963L139.55 80.1383Z" fill="#B38385"/>
<path d="M18.36 53.521C18.36 53.521 23.1 56.484 31.09 55.9901C31.09 55.9901 33.59 55.7432 38.33 57.7185C38.33 57.7185 40.08 59.6938 47.57 56.9778C47.57 56.9778 57.81 51.8025 62.05 53.2741L66.8 55.2494L74.8 57.9654C74.8 57.9654 82.04 63.2494 87.04 64.405C88.5007 64.7403 89.8208 65.5129 90.82 66.6173L95.5 71.7729C95.5 71.7729 98.25 71.0321 101.5 74.4889L107.5 80.158L-2.62 80.4049L11.87 53.521H18.36Z" fill="#474159"/>
<path d="M202.04 238.114C202.04 238.114 204.56 239.289 204.87 243.121V248.207C204.87 248.207 204.87 251.407 195.87 254.716C185.6 258.499 174.76 260.444 164 261.798C136.861 265.123 109.408 265.08 82.28 261.669C76.3126 260.98 70.3945 259.924 64.56 258.509C59.6497 257.437 54.9303 255.642 50.56 253.185C48.6075 251.985 46.9094 250.422 45.56 248.583C44.8 247.595 44.79 245.679 44.78 244.444C44.78 241.748 45.47 238.301 47.56 236.543C48.01 236.168 47.64 231.17 47.7 230.489C48.07 225.488 49.1402 220.562 50.88 215.852C59.58 192.82 89.96 187.427 110.44 186.657C135.11 185.669 162.94 184.563 184.35 199.832C188.551 202.761 192.019 206.598 194.49 211.052C196.253 214.019 197.759 217.128 198.99 220.346C200.25 223.723 200.29 227.032 201.1 230.43L202.04 238.114Z" fill="url(#paint2_linear_426_127)"/>
<path d="M39.39 152.622C38.4895 152.118 37.7385 151.389 37.2121 150.509C36.6857 149.629 36.4023 148.627 36.39 147.605V142.528C36.39 142.528 36.39 139.328 46 136.02C57 132.237 68.62 130.291 80.15 128.928C109.246 125.608 138.634 125.651 167.72 129.057C174.11 129.748 180.454 130.804 186.72 132.217C191.87 133.422 197.14 134.933 201.72 137.551C203.808 138.728 205.648 140.29 207.14 142.153C207.95 143.141 207.96 145.047 207.97 146.281C207.97 148.978 207.23 152.435 204.97 154.183C204.5 154.568 204.89 159.565 204.83 160.247C204.43 165.262 203.281 170.191 201.42 174.874C192.09 197.916 159.54 203.299 137.59 204.079C111.15 205.067 81.33 206.163 58.38 190.904C53.9325 188.034 50.2132 184.191 47.51 179.674C45.6279 176.723 44.0149 173.613 42.69 170.38C41.34 167.002 41.29 163.704 40.43 160.296L39.39 152.622Z" fill="black"/>
<path d="M196.75 112.849L171.91 131.249L177.96 133.807L200.1 115.783" fill="black"/>
<path d="M39.2499 150.627C39.2499 150.627 36.2499 177.906 35.3999 180.356C35.3999 180.356 34.3999 186.015 33.1299 188.039L23.1 220.084L26.55 222C26.55 222 41.3399 181.639 39.8299 174.805L42.0899 152.83L39.2499 150.627Z" fill="black"/>
<path d="M200.409 112.907L196.314 111.085C195.188 110.584 193.864 111.079 193.357 112.191L193.25 112.425C192.743 113.537 193.245 114.844 194.37 115.345L198.465 117.167C199.591 117.668 200.915 117.173 201.422 116.061L201.529 115.827C202.036 114.716 201.535 113.408 200.409 112.907Z" fill="black"/>
</g>
<defs>
<linearGradient id="paint0_linear_426_127" x1="110.69" y1="99.8635" x2="109.569" y2="10.6352" gradientUnits="userSpaceOnUse">
<stop offset="0.01" stop-color="white"/>
<stop offset="0.03" stop-color="#FFFDFC"/>
<stop offset="0.34" stop-color="#FBD7CF"/>
<stop offset="0.61" stop-color="#F8BCAF"/>
<stop offset="0.84" stop-color="#F7AB9B"/>
<stop offset="1" stop-color="#F6A594"/>
</linearGradient>
<linearGradient id="paint1_linear_426_127" x1="110.69" y1="99.8635" x2="109.569" y2="10.6352" gradientUnits="userSpaceOnUse">
<stop offset="0.01" stop-color="white"/>
<stop offset="0.03" stop-color="#FFFDFC"/>
<stop offset="0.34" stop-color="#FBD7CF"/>
<stop offset="0.61" stop-color="#F8BCAF"/>
<stop offset="0.84" stop-color="#F7AB9B"/>
<stop offset="1" stop-color="#F6A594"/>
</linearGradient>
<linearGradient id="paint2_linear_426_127" x1="124.33" y1="193.501" x2="124.749" y2="240.01" gradientUnits="userSpaceOnUse">
<stop offset="0.29" stop-color="#2F2E36"/>
<stop offset="0.41" stop-color="#37363E"/>
<stop offset="0.59" stop-color="#4E4D54"/>
<stop offset="0.7" stop-color="#605F65"/>
<stop offset="0.94" stop-color="#939296"/>
</linearGradient>
</defs>
</svg>
