<svg width="400" height="198" viewBox="0 0 400 198" fill="none" xmlns="http://www.w3.org/2000/svg">
<path fill-rule="evenodd" clip-rule="evenodd" d="M291.327 133.082C278.067 170.664 241.778 197.832 199.288 197.832C156.569 197.832 120.329 170.95 107.273 132.935L112.23 131.225L117.229 129.532C129.18 163.113 161.346 186.755 199.263 186.755C237.057 186.755 269.379 162.745 281.429 129.393L291.327 133.082ZM107.273 66.4354C120.525 28.1585 156.814 0.500004 199.304 0.500004C242.048 0.500004 278.271 27.8886 291.327 66.599L286.37 68.3414L281.372 70.0594C269.412 35.8482 237.246 11.7728 199.337 11.7728C161.526 11.7728 129.205 36.2327 117.171 70.1984L107.273 66.4354V66.4354ZM223.469 90.8216L223.142 78.3299L223.469 90.8216ZM223.789 90.8216C228.811 90.8216 232.91 94.9201 232.91 99.943C232.91 104.982 228.811 109.081 223.789 109.081C218.749 109.081 214.643 104.982 214.643 99.943C214.643 94.9201 218.749 90.8216 223.789 90.8216ZM276.815 90.7889L276.676 78.3299L276.815 90.7889ZM277.085 90.8216C282.116 90.8216 286.214 94.9201 286.214 99.943C286.214 104.982 282.116 109.081 277.085 109.081C272.038 109.081 267.947 104.982 267.947 99.943C267.947 94.9201 272.038 90.8216 277.085 90.8216V90.8216ZM398.329 105.653L398.967 105.08L399.499 117.212C399.63 120.124 388.521 124.452 382.344 119.953C376.16 115.461 376.021 110.259 376.021 103.42H346.955C350.08 111.674 359.995 110.79 362.76 106.635L374.818 108.59C370.36 122.538 358.441 124.346 347.004 120.632C341.221 117.801 337.736 114.373 335.126 108.443V122.309H320.957C320.957 113.793 320.974 104.123 320.859 95.46C320.401 89.8154 311.353 90.2817 311.353 95.7954V122.309L297.324 122.513H293.242H287.679L287.671 114.12C287.662 110.782 283.858 122.808 279.31 122.513C269.477 123.233 261.542 118.153 257.394 109.334V122.309H242.964V109.334C238.775 117.752 227.789 123.184 217.023 120.46L215.428 119.789C215.428 119.789 215.878 134.735 215.878 138.596H201.48V100.377C201.84 82.3466 221.302 71.6464 236.092 82.3875C239.217 84.9398 241.164 87.5085 242.964 91.108V60.9871H257.394V91.108C262.074 81.4958 271.121 76.8574 281.756 78.6244C289.642 80.8004 294.24 84.678 297.414 92.0405C301.422 80.2932 312.548 75.4913 324.099 79.5488C329.923 82.2893 333.056 86.0033 335.126 92.0405C340.394 80.5223 351.806 75.5403 363.758 79.7697C369.722 82.5184 373.517 86.0033 376.021 92.0405V69.634H389.969V78.4363H398.795V91.3452H389.969C389.969 95.7136 389.265 100.123 390.623 104.23C391.956 107.093 395.76 107.739 398.329 105.653V105.653ZM354.735 78.3872L355.25 90.6744L354.735 78.3872ZM346.857 97.137H364.339C361.582 88.1957 349.237 88.5638 346.857 97.137ZM33.9176 90.6253L34.0649 78.3299L33.9176 90.6253ZM34.4657 90.568C39.505 90.568 43.6034 94.6747 43.6034 99.7057C43.6034 104.745 39.505 108.843 34.4657 108.843C29.4347 108.843 25.3526 104.745 25.3526 99.7057C25.3526 94.6747 29.4347 90.568 34.4657 90.568ZM183.458 125.09V78.199H169.281V105.015C169.281 109.866 162.181 109.907 162.181 105.015V78.199H148.028V60.9871H133.606V92.0405C128.968 82.1093 120.206 76.9965 109.212 78.5426C101.317 80.2932 95.7054 84.678 92.6704 92.0405C89.9381 83.3037 83.4837 78.6817 74.4932 78.199C64.9547 78.199 57.854 82.8619 54.9908 92.0405C50.1806 81.4549 40.5602 76.342 29.0993 78.9353C22.2194 81.0868 18.0555 84.7271 14.9305 91.108V60.9871H0.500031V122.309H14.9305V108.549C19.029 116.762 25.8761 121.294 35.0466 121.474C44.7978 120.902 51.0559 116.263 54.9908 107.625V122.309H68.8814V95.8445C69.4213 90.0772 78.199 89.8972 78.7308 95.8445V122.309H92.6704V108.443C95.8772 115.551 100.916 119.838 108.467 121.769C125.008 123.348 131.569 111.96 131.659 109.105L119.715 107.297C113.678 111.87 106.774 109.498 104.59 103.42H133.606V122.309H148.028V112.606C150.417 122.219 162.287 125.491 169.028 118.284C169.028 120.403 168.807 122.889 168.153 124.918C165.985 130.113 158.761 130.113 155.023 126.636L146.515 137.623C151.947 141.901 157.428 143.971 164.447 143.308C170.222 142.727 173.895 141.713 178.305 137.745C181.65 134.007 183.246 130.113 183.458 125.09V125.09ZM122.014 97.8569C119.159 88.6783 107.036 88.8419 104.279 97.8569H122.014Z" fill="currentColor"/>
</svg>
